 <svg version="1.0" xmlns="http://www.w3.org/2000/svg" width="700.000000pt" height="653.000000pt" viewBox="0 0 700.000000 653.000000" preserveAspectRatio="xMidYMid meet">
<metadata>
Created by potrace 1.12, written by Peter Selinger 2001-2015
</metadata>
<g transform="translate(0.000000,653.000000) scale(0.100000,-0.100000)" fill="#000000" stroke="none">
<path d="M0 3265 l0 -3265 3500 0 3500 0 0 3265 0 3265 -3500 0 -3500 0 0
-3265z m3632 1956 c464 -80 890 -388 1153 -836 132 -223 229 -511 260 -767 7
-56 8 -58 59 -86 238 -136 276 -455 74 -638 -67 -61 -139 -87 -245 -92 -83 -4
-93 -6 -93 -23 0 -17 -9 -19 -90 -19 l-90 0 0 430 0 430 90 0 c83 0 90 -1 90
-20 0 -15 7 -20 25 -20 14 0 25 3 25 6 0 31 -56 272 -81 345 -42 130 -138 326
-214 439 -238 355 -586 590 -985 665 -126 24 -350 24 -480 1 -621 -111 -1119
-635 -1259 -1323 -27 -129 -27 -133 4 -133 18 0 25 5 25 20 0 19 7 20 90 20
l90 0 0 -430 0 -430 -90 0 c-81 0 -90 2 -90 19 0 17 -10 19 -94 23 -80 3 -102
8 -158 36 -79 38 -149 110 -186 190 -24 50 -27 69 -27 162 0 96 3 110 29 165
36 72 106 144 173 179 l50 25 7 68 c35 353 225 775 475 1060 260 295 638 500
1006 546 99 13 351 6 457 -12z m-402 -371 c20 -5 50 -20 67 -33 46 -34 343
-385 360 -426 29 -69 13 -192 -32 -241 -12 -14 -11 -24 10 -83 50 -136 49
-248 0 -313 -14 -19 -59 -58 -99 -88 -60 -44 -79 -66 -104 -115 -33 -66 -49
-165 -38 -226 l7 -35 62 0 62 0 36 163 35 162 490 0 489 0 3 -872 2 -873 -300
0 -300 0 0 710 0 710 -227 -2 -227 -3 -63 -280 c-34 -154 -68 -305 -74 -335
-9 -44 -13 -51 -20 -35 -8 19 -149 631 -149 648 0 4 -111 6 -247 5 l-248 -3
-3 -707 -2 -708 -280 0 -280 0 0 875 0 875 492 -2 493 -3 32 -140 c18 -77 35
-150 38 -162 5 -20 12 -23 54 -23 l48 0 5 98 c9 168 50 242 177 318 95 56 121
94 121 176 0 51 -23 137 -49 186 -10 19 -13 19 -40 6 -43 -21 -119 -28 -168
-15 -42 11 -123 66 -130 87 -2 6 30 40 72 75 70 59 83 78 59 86 -6 2 -44 -26
-86 -61 -73 -64 -76 -65 -93 -46 -16 18 -15 20 21 52 100 86 119 107 108 118
-8 8 -31 -6 -89 -55 -61 -52 -80 -63 -91 -54 -24 20 -16 33 56 93 66 55 87 86
58 86 -7 0 -44 -27 -83 -60 -38 -33 -73 -60 -76 -60 -4 0 -13 7 -20 16 -11 14
-8 21 26 52 22 19 57 50 78 69 34 31 41 53 17 53 -5 0 -40 -27 -78 -60 -39
-33 -74 -60 -80 -60 -5 0 -15 7 -22 15 -11 13 -6 21 31 53 101 86 115 100 102
113 -9 9 -29 -3 -89 -54 -42 -37 -81 -64 -86 -61 -4 3 -17 23 -29 45 -98 192
82 407 291 349z m1688 -3006 c4 -26 -34 -74 -59 -74 -27 0 -24 32 7 70 29 33
47 35 52 4z m-208 -23 c0 -10 -11 -26 -25 -35 -34 -22 -53 -64 -61 -130 -5
-40 -3 -56 5 -56 21 0 141 81 165 112 16 21 29 29 40 25 26 -10 19 -36 -34
-118 -27 -43 -50 -87 -50 -99 0 -19 1 -20 29 -5 16 8 69 57 117 109 104 114
177 153 239 130 24 -9 37 -51 25 -75 -17 -30 -40 -24 -40 11 0 26 -3 30 -29
30 -66 0 -154 -97 -155 -172 l-1 -43 45 0 c55 1 96 27 219 139 83 74 111 90
111 62 0 -23 -177 -182 -240 -215 -77 -41 -139 -43 -169 -5 -12 15 -21 34 -21
42 0 11 -10 7 -32 -15 -63 -59 -116 -70 -143 -30 -15 24 -11 59 15 107 13 25
16 25 -51 -16 -34 -21 -36 -26 -42 -91 -7 -75 -28 -112 -71 -128 -36 -12 -80
11 -84 45 -7 45 17 98 58 131 33 26 40 39 40 67 l0 34 -43 -59 c-51 -68 -118
-129 -151 -135 -13 -3 -33 -1 -45 4 -19 7 -22 14 -19 43 4 34 3 34 -17 20 -72
-54 -135 -51 -135 6 l0 32 -54 -57 c-59 -61 -91 -79 -118 -64 -33 16 -20 61
47 168 35 57 62 106 60 108 -5 5 -58 -39 -183 -155 -79 -73 -91 -81 -103 -67
-11 13 -6 29 30 101 23 47 40 88 37 90 -6 7 -117 -91 -201 -176 -58 -59 -78
-71 -89 -52 -4 5 11 40 32 78 21 37 57 103 80 145 l42 78 -30 -6 c-23 -5 -30
-3 -30 9 0 34 102 63 113 33 3 -7 -19 -57 -48 -110 -29 -53 -49 -96 -44 -96 5
0 9 4 9 9 0 6 37 42 81 80 118 102 163 95 123 -20 l-20 -57 79 73 c89 81 136
111 161 102 27 -11 19 -36 -49 -158 -36 -64 -65 -122 -65 -128 0 -29 162 138
217 224 30 46 41 55 60 48 23 -9 15 -34 -36 -112 -54 -83 -64 -114 -41 -118
25 -5 85 52 161 153 39 52 76 93 83 91 26 -9 15 -49 -34 -122 -73 -108 -90
-155 -58 -155 31 0 190 189 221 261 15 38 79 99 102 99 8 0 15 -8 15 -19z
m-2687 -63 c9 -11 17 -24 17 -29 0 -5 -38 -9 -85 -9 l-85 0 0 -35 0 -35 61 0
60 0 -3 -32 c-3 -33 -4 -33 -60 -36 l-58 -3 0 -39 0 -40 85 0 c47 0 85 -4 85
-9 0 -4 -9 -20 -21 -35 -20 -26 -23 -27 -118 -24 l-96 3 -3 172 -2 172 62 3
c98 5 141 -2 161 -24z m505 22 c51 0 52 0 52 -30 0 -29 -2 -30 -45 -30 l-44 0
-3 -142 -3 -143 -30 0 -30 0 -3 143 -3 142 -59 0 c-33 0 -60 3 -60 8 0 4 7 17
15 29 12 17 28 23 68 26 28 2 61 2 72 0 11 -1 44 -3 73 -3z m238 0 c31 0 34
-3 34 -30 l0 -30 -70 0 -70 0 0 -35 0 -35 60 0 60 0 0 -35 c0 -19 -3 -34 -7
-34 -5 1 -32 1 -60 0 l-53 -1 0 -40 0 -40 70 0 70 0 0 -35 0 -35 -100 0 -100
0 0 174 0 175 53 4 c28 2 58 2 65 0 8 -2 29 -3 48 -3z m289 -9 c43 -19 95 -73
95 -97 0 -9 -11 -14 -35 -14 -19 0 -35 5 -35 10 0 19 -65 50 -103 50 -31 0
-46 -7 -73 -34 -28 -28 -34 -42 -34 -76 0 -34 6 -48 34 -76 29 -29 41 -34 81
-34 38 0 52 5 77 30 19 20 40 30 59 30 37 0 38 -18 3 -60 -57 -67 -142 -86
-220 -51 -134 61 -136 253 -2 320 52 26 100 26 153 2z m-1511 -113 c28 -65 54
-114 57 -110 4 4 28 58 55 120 47 111 47 112 81 112 l33 0 0 -175 0 -175 -30
0 -30 0 0 97 c0 53 -3 93 -7 89 -4 -3 -23 -46 -42 -94 -34 -81 -38 -87 -65
-87 -26 0 -31 6 -66 95 l-39 95 -3 -95 -3 -95 -30 0 -30 0 -3 173 -2 173 36
-3 37 -3 51 -117z m594 71 l34 -51 34 51 c31 45 38 51 70 51 l36 0 -20 -32
c-10 -18 -33 -56 -51 -84 l-32 -51 51 -81 c53 -83 56 -102 16 -102 -17 0 -33
15 -60 55 -20 30 -40 55 -45 55 -4 0 -25 -25 -45 -55 -27 -42 -42 -55 -61 -55
-13 0 -27 4 -30 10 -3 5 17 45 45 88 27 44 50 82 50 86 0 4 -20 39 -45 77 -25
38 -45 74 -45 79 0 6 15 10 33 10 27 0 37 -7 65 -51z m1112 -14 l0 -65 65 0
65 0 0 65 0 65 35 0 35 0 -2 -172 -3 -173 -32 -3 -33 -3 0 80 0 81 -65 0 -65
0 0 -81 0 -80 -31 3 -30 3 -2 173 -2 172 33 0 32 0 0 -65z"></path>
<path d="M4554 1488 c-33 -35 -47 -69 -36 -80 17 -17 51 10 58 47 9 49 2 60
-22 33z"></path>
</g>
</svg>